<svg version="1.1" id="Layer_1" xmlns="http://www.w3.org/2000/svg" xmlns:xlink="http://www.w3.org/1999/xlink" x="0px" y="0px"
	 width="100%" viewBox="0 0 479 216" enable-background="new 0 0 479 216" xml:space="preserve">
<path fill="#0a1121" opacity="1.000000" stroke="none" 
	d="
M298.000000,217.000000 
	C198.666687,217.000000 99.833366,217.000000 1.000040,217.000000 
	C1.000026,145.000031 1.000026,73.000061 1.000013,1.000069 
	C160.666611,1.000046 320.333221,1.000046 479.999878,1.000023 
	C479.999908,72.999931 479.999908,144.999863 479.999939,216.999893 
	C419.500000,217.000000 359.000000,217.000000 298.000000,217.000000 
M230.827621,111.556282 
	C230.827621,145.283508 230.827621,179.010727 230.827621,212.750458 
	C242.255707,212.750458 253.010864,212.750458 264.295532,212.750458 
	C264.295532,194.504807 264.295532,176.501938 264.295532,157.648758 
	C271.677551,164.778214 279.783783,168.327393 288.973328,169.128342 
	C331.674744,172.850174 362.297882,127.970055 344.110596,88.064697 
	C333.838776,65.526970 314.919617,56.390255 291.130554,55.619617 
	C256.141968,54.486176 231.677643,76.820877 230.827621,111.556282 
M361.681488,132.686523 
	C365.224518,143.065140 371.359650,151.505890 380.205048,158.058884 
	C393.219330,167.700378 408.000275,170.464737 423.689728,169.100693 
	C474.246368,164.705261 487.462128,115.020973 468.925079,82.693260 
	C457.459290,62.697529 438.544281,55.279495 416.209991,55.629906 
	C400.368683,55.878445 385.857880,60.234379 374.493530,71.773705 
	C357.564392,88.963470 355.259644,109.618843 361.681488,132.686523 
M78.215103,156.474823 
	C78.215103,150.189209 78.215103,143.903595 78.215103,138.033737 
	C72.873199,138.033737 68.085823,138.269028 63.329262,137.986145 
	C52.479298,137.340881 43.716801,131.178162 41.935345,121.030769 
	C40.268204,111.534531 40.659428,101.676926 40.115128,91.419678 
	C51.385265,91.419678 61.469498,91.419678 71.629501,91.419678 
	C71.629501,80.818710 71.629501,70.739441 71.629501,60.020451 
	C61.174648,60.020451 50.969273,60.020451 40.331799,60.020451 
	C40.331799,49.631252 40.331799,39.881222 40.331799,30.190556 
	C28.984989,30.190556 18.101852,30.190556 6.997166,30.190556 
	C6.997166,57.839092 6.856322,85.127556 7.035289,112.413918 
	C7.228810,141.919479 26.878937,164.529526 56.178131,168.617996 
	C63.261608,169.606445 70.600441,168.764938 78.215187,168.764938 
	C78.215187,164.407837 78.215187,160.935928 78.215103,156.474823 
M156.201584,88.003807 
	C158.101700,88.188942 160.001816,88.374069 161.826584,88.551857 
	C161.826584,77.630219 161.826584,67.080917 161.826584,56.399933 
	C159.127075,56.062218 156.825592,55.541592 154.523666,55.539642 
	C150.866272,55.536545 147.194656,55.738586 143.553238,56.098503 
	C112.790543,59.139057 93.008507,79.528801 91.692299,110.367630 
	C91.011055,126.329247 91.479156,142.339981 91.431725,158.328537 
	C91.422447,161.456726 91.430389,164.584991 91.430389,167.894684 
	C102.843529,167.894684 113.735023,167.894684 125.002785,167.894684 
	C125.002785,165.992538 125.002701,164.360641 125.002808,162.728729 
	C125.003868,145.739395 124.922089,128.749527 125.034225,111.760925 
	C125.113205,99.795509 131.728516,91.513283 143.396439,88.957779 
	C147.247421,88.114342 151.313385,88.252518 156.201584,88.003807 
M204.142654,56.461403 
	C194.182373,56.461403 184.222107,56.461403 174.231827,56.461403 
	C174.231827,93.995743 174.231827,131.011688 174.231827,167.825333 
	C185.399414,167.825333 196.150085,167.825333 207.166214,167.825333 
	C207.166214,131.359161 207.181030,95.233078 207.078537,59.107334 
	C207.076050,58.228638 205.768463,57.353645 204.142654,56.461403 
M200.072937,43.821655 
	C208.335266,38.815105 211.642822,29.743832 208.730942,20.076248 
	C206.276901,11.928655 198.845505,7.129427 189.405548,7.595835 
	C179.909302,8.065025 172.990860,13.592410 171.427231,22.524021 
	C170.185623,29.616154 171.664734,36.210587 177.366821,41.098362 
	C183.964294,46.753635 191.473450,47.112202 200.072937,43.821655 
z"/>
<path fill="#fff" opacity="1.000000" stroke="none" 
	d="
M230.839813,111.067307 
	C231.677643,76.820877 256.141968,54.486176 291.130554,55.619617 
	C314.919617,56.390255 333.838776,65.526970 344.110596,88.064697 
	C362.297882,127.970055 331.674744,172.850174 288.973328,169.128342 
	C279.783783,168.327393 271.677551,164.778214 264.295532,157.648758 
	C264.295532,176.501938 264.295532,194.504807 264.295532,212.750458 
	C253.010864,212.750458 242.255707,212.750458 230.827621,212.750458 
	C230.827621,179.010727 230.827621,145.283508 230.839813,111.067307 
M291.327271,138.054169 
	C306.122955,137.366058 314.439178,129.685608 315.536133,114.936127 
	C316.306488,104.578033 313.925812,94.997849 303.796997,89.906425 
	C293.705566,84.833786 283.270447,85.002419 273.331573,90.859787 
	C271.666473,91.841095 270.119171,93.363777 269.069427,94.992157 
	C262.334747,105.439255 262.444000,116.548439 267.570221,127.328079 
	C272.017578,136.680222 280.819763,138.654404 291.327271,138.054169 
z"/>
<path fill="#fff" opacity="1.000000" stroke="none" 
	d="
M361.505981,132.330887 
	C355.259644,109.618843 357.564392,88.963470 374.493530,71.773705 
	C385.857880,60.234379 400.368683,55.878445 416.209991,55.629906 
	C438.544281,55.279495 457.459290,62.697529 468.925079,82.693260 
	C487.462128,115.020973 474.246368,164.705261 423.689728,169.100693 
	C408.000275,170.464737 393.219330,167.700378 380.205048,158.058884 
	C371.359650,151.505890 365.224518,143.065140 361.505981,132.330887 
M443.156067,112.529381 
	C442.609161,108.931702 442.530975,105.183014 441.429596,101.763947 
	C437.764221,90.385376 426.595245,84.864983 412.227081,86.954918 
	C401.055481,88.579887 393.952942,95.566101 392.168091,106.685471 
	C390.111847,119.495247 394.738434,130.737274 404.073853,135.615128 
	C422.495514,145.240601 442.179565,134.076477 443.156067,112.529381 
z"/>
<path fill="#fff" opacity="1.000000" stroke="none" 
	d="
M78.215149,156.969421 
	C78.215187,160.935928 78.215187,164.407837 78.215187,168.764938 
	C70.600441,168.764938 63.261608,169.606445 56.178131,168.617996 
	C26.878937,164.529526 7.228810,141.919479 7.035289,112.413918 
	C6.856322,85.127556 6.997166,57.839092 6.997166,30.190556 
	C18.101852,30.190556 28.984989,30.190556 40.331799,30.190556 
	C40.331799,39.881222 40.331799,49.631252 40.331799,60.020451 
	C50.969273,60.020451 61.174648,60.020451 71.629501,60.020451 
	C71.629501,70.739441 71.629501,80.818710 71.629501,91.419678 
	C61.469498,91.419678 51.385265,91.419678 40.115128,91.419678 
	C40.659428,101.676926 40.268204,111.534531 41.935345,121.030769 
	C43.716801,131.178162 52.479298,137.340881 63.329262,137.986145 
	C68.085823,138.269028 72.873199,138.033737 78.215103,138.033737 
	C78.215103,143.903595 78.215103,150.189209 78.215149,156.969421 
z"/>
<path fill="#fff" opacity="1.000000" stroke="none" 
	d="
M155.741318,87.972832 
	C151.313385,88.252518 147.247421,88.114342 143.396439,88.957779 
	C131.728516,91.513283 125.113205,99.795509 125.034225,111.760925 
	C124.922089,128.749527 125.003868,145.739395 125.002808,162.728729 
	C125.002701,164.360641 125.002785,165.992538 125.002785,167.894684 
	C113.735023,167.894684 102.843529,167.894684 91.430389,167.894684 
	C91.430389,164.584991 91.422447,161.456726 91.431725,158.328537 
	C91.479156,142.339981 91.011055,126.329247 91.692299,110.367630 
	C93.008507,79.528801 112.790543,59.139057 143.553238,56.098503 
	C147.194656,55.738586 150.866272,55.536545 154.523666,55.539642 
	C156.825592,55.541592 159.127075,56.062218 161.826584,56.399933 
	C161.826584,67.080917 161.826584,77.630219 161.826584,88.551857 
	C160.001816,88.374069 158.101700,88.188942 155.741318,87.972832 
z"/>
<path fill="#fff" opacity="1.000000" stroke="none" 
	d="
M204.606125,56.469162 
	C205.768463,57.353645 207.076050,58.228638 207.078537,59.107334 
	C207.181030,95.233078 207.166214,131.359161 207.166214,167.825333 
	C196.150085,167.825333 185.399414,167.825333 174.231827,167.825333 
	C174.231827,131.011688 174.231827,93.995743 174.231827,56.461403 
	C184.222107,56.461403 194.182373,56.461403 204.606125,56.469162 
z"/>
<path fill="#fff" opacity="1.000000" stroke="none" 
	d="
M199.710220,43.948997 
	C191.473450,47.112202 183.964294,46.753635 177.366821,41.098362 
	C171.664734,36.210587 170.185623,29.616154 171.427231,22.524021 
	C172.990860,13.592410 179.909302,8.065025 189.405548,7.595835 
	C198.845505,7.129427 206.276901,11.928655 208.730942,20.076248 
	C211.642822,29.743832 208.335266,38.815105 199.710220,43.948997 
z"/>
<path fill="#0a1121" opacity="1.000000" stroke="none" 
	d="
M290.862061,138.076767 
	C280.819763,138.654404 272.017578,136.680222 267.570221,127.328079 
	C262.444000,116.548439 262.334747,105.439255 269.069427,94.992157 
	C270.119171,93.363777 271.666473,91.841095 273.331573,90.859787 
	C283.270447,85.002419 293.705566,84.833786 303.796997,89.906425 
	C313.925812,94.997849 316.306488,104.578033 315.536133,114.936127 
	C314.439178,129.685608 306.122955,137.366058 290.862061,138.076767 
z"/>
<path fill="#0a1121" opacity="1.000000" stroke="none" 
	d="
M443.151733,112.991638 
	C442.179565,134.076477 422.495514,145.240601 404.073853,135.615128 
	C394.738434,130.737274 390.111847,119.495247 392.168091,106.685471 
	C393.952942,95.566101 401.055481,88.579887 412.227081,86.954918 
	C426.595245,84.864983 437.764221,90.385376 441.429596,101.763947 
	C442.530975,105.183014 442.609161,108.931702 443.151733,112.991638 
z"/>
</svg>